<svg xmlns="http://www.w3.org/2000/svg" width="600" height="600" viewBox="0 0 600 600">
  <defs>
    <linearGradient id="bg" x1="0" y1="0" x2="1" y2="1">
      <stop offset="0%" stop-color="#0b1420"/>
      <stop offset="100%" stop-color="#12324a"/>
    </linearGradient>
    <linearGradient id="petal" x1="0" y1="0" x2="0" y2="1">
      <stop offset="0%" stop-color="#7fe8ff"/>
      <stop offset="100%" stop-color="#1b7fb0"/>
    </linearGradient>
  </defs>
  <rect width="600" height="600" fill="url(#bg)"/>
  <g stroke="#2f7aa6" stroke-width="2" opacity="0.5">
    <line x1="60" y1="120" x2="540" y2="80" />
    <line x1="90" y1="520" x2="520" y2="480" />
    <line x1="140" y1="60" x2="200" y2="220" />
    <line x1="420" y1="380" x2="520" y2="140" />
    <circle cx="540" cy="80" r="6" fill="#7fe8ff" />
    <circle cx="520" cy="480" r="6" fill="#7fe8ff" />
    <circle cx="200" cy="220" r="6" fill="#7fe8ff" />
    <circle cx="520" cy="140" r="6" fill="#7fe8ff" />
  </g>
  <g transform="translate(300 300)">
    <circle cx="0" cy="0" r="150" fill="#0f2233"/>
    <g fill="url(#petal)">
      <ellipse cx="0" cy="-56" rx="44" ry="82"/>
      <ellipse cx="0" cy="-56" rx="44" ry="82" transform="rotate(72)"/>
      <ellipse cx="0" cy="-56" rx="44" ry="82" transform="rotate(144)"/>
      <ellipse cx="0" cy="-56" rx="44" ry="82" transform="rotate(216)"/>
      <ellipse cx="0" cy="-56" rx="44" ry="82" transform="rotate(288)"/>
    </g>
    <circle cx="0" cy="0" r="30" fill="#0a1f2c"/>
    <circle cx="-8" cy="-8" r="16" fill="#a5f0ff"/>
    <path d="M60 -40 A90 90 0 1 0 60 40" fill="none" stroke="#c7f4ff" stroke-width="14" stroke-linecap="round"/>
  </g>
</svg>
