<svg xmlns="http://www.w3.org/2000/svg" width="1000" height="286.6" viewBox="0 0 1000 286.6">
  <defs>
    <linearGradient id="bg" x1="0" y1="0" x2="1" y2="1">
      <stop offset="0%" stop-color="#0b1420"/>
      <stop offset="100%" stop-color="#1c3b56"/>
    </linearGradient>
    <linearGradient id="petal" x1="0" y1="0" x2="0" y2="1">
      <stop offset="0%" stop-color="#7fe8ff"/>
      <stop offset="100%" stop-color="#1b7fb0"/>
    </linearGradient>
  </defs>
  <rect width="1000" height="286.6" fill="url(#bg)"/>
  <g transform="translate(140 143)">
    <circle cx="0" cy="0" r="70" fill="#0f2233"/>
    <g fill="url(#petal)">
      <ellipse cx="0" cy="-26" rx="20" ry="38"/>
      <ellipse cx="0" cy="-26" rx="20" ry="38" transform="rotate(72)"/>
      <ellipse cx="0" cy="-26" rx="20" ry="38" transform="rotate(144)"/>
      <ellipse cx="0" cy="-26" rx="20" ry="38" transform="rotate(216)"/>
      <ellipse cx="0" cy="-26" rx="20" ry="38" transform="rotate(288)"/>
    </g>
    <circle cx="0" cy="0" r="16" fill="#0a1f2c"/>
    <circle cx="-4" cy="-4" r="8" fill="#a5f0ff"/>
    <path d="M28 -20 A40 40 0 1 0 28 20" fill="none" stroke="#c7f4ff" stroke-width="8" stroke-linecap="round"/>
  </g>
  <text x="260" y="140" fill="#e8f8ff" font-family="Segoe UI, Arial, sans-serif" font-size="64" font-weight="700" letter-spacing="1">Camellia</text>
  <text x="260" y="190" fill="#9ad9ff" font-family="Segoe UI, Arial, sans-serif" font-size="26" font-weight="500" letter-spacing="0.5">Secure remote desktop</text>
  <g stroke="#3aa6d9" stroke-width="2" opacity="0.6">
    <line x1="720" y1="60" x2="920" y2="80" />
    <line x1="700" y1="200" x2="930" y2="170" />
    <circle cx="920" cy="80" r="6" fill="#7fe8ff" />
    <circle cx="930" cy="170" r="6" fill="#7fe8ff" />
  </g>
</svg>
